<svg width="39" height="38" viewBox="0 0 39 38" fill="none" xmlns="http://www.w3.org/2000/svg">
<path d="M8.93716 37.9872C8.2606 37.9755 7.61734 37.683 7.15978 37.1759C6.70029 36.6708 6.46566 35.9961 6.50671 35.3096L7.15978 24.8235L0.568471 16.7188V16.7169C0.0268704 16.0499 -0.141316 15.147 0.122662 14.324C0.388582 13.503 1.04949 12.8751 1.87265 12.6644L11.8602 10.0551L17.4174 1.17207V1.17012C17.871 0.440781 18.661 0 19.5096 0C20.3582 0 21.1461 0.440736 21.6017 1.17012L27.1354 10.0531L37.1465 12.6625L37.1445 12.6644C37.9657 12.8809 38.6208 13.5108 38.8809 14.3318C39.1409 15.1528 38.9688 16.0538 38.4272 16.7168L31.8594 24.8215L32.489 35.3076V35.3095C32.5457 36.1696 32.1664 37.0023 31.4821 37.5113C30.7977 38.0222 29.9042 38.1412 29.1142 37.8272L19.5095 33.9581L9.90489 37.8272H9.90293C9.59399 37.9462 9.26567 38.0008 8.93716 37.9872ZM11.7039 31.6688L18.5865 28.8976C19.1712 28.6616 19.8242 28.6616 20.4088 28.8976L27.315 31.6688L26.8418 24.1352C26.8027 23.4956 27.0041 22.8656 27.4049 22.3723L32.1505 16.5571L24.953 14.6791C24.3409 14.5251 23.8111 14.1409 23.4689 13.6027L19.5094 7.23732L15.5285 13.6027H15.5265C15.1902 14.137 14.6682 14.5212 14.0659 14.6791L6.8684 16.5571L11.6139 22.3723C12.0128 22.8657 12.2142 23.4956 12.1751 24.1352L11.7019 31.6688H11.7039Z" fill="#6B7280"/>
</svg>
