<svg width="39" height="39" viewBox="0 0 39 39" fill="none" xmlns="http://www.w3.org/2000/svg">
<path d="M18.4146 22.6379C18.3574 21.5313 17.4688 20.6426 16.3621 20.5855L16.25 20.5834H2.16667C0.969096 20.5834 0 21.5525 0 22.75V36.8333C0 38.0309 0.969096 39 2.16667 39H16.25L16.3621 38.9979C17.4688 38.9408 18.3574 38.0521 18.4146 36.9455L18.4167 36.8333V22.75L18.4146 22.6379ZM12.4584 29.7917C12.4584 27.9974 11.0027 26.5417 9.20841 26.5417C7.41414 26.5417 5.95841 27.9974 5.95841 29.7917C5.95841 31.586 7.41414 33.0417 9.20841 33.0417C11.0027 33.0417 12.4584 31.586 12.4584 29.7917ZM28.5199 25.4182C29.398 24.0682 31.4271 24.1148 32.227 25.5536L35.8028 31.9902L35.8727 32.1256C36.518 33.4967 35.5743 35.1006 34.0614 35.2021L33.9091 35.2085H26.7575C25.105 35.2085 24.0618 33.4333 24.8638 31.9902L28.4396 25.5536L28.5199 25.4182ZM26.7574 33.0416H33.909L30.3331 26.605L26.7574 33.0416ZM23.2895 7.47119C23.2323 6.36457 22.3437 5.47591 21.237 5.41877L21.1249 5.41665H17.8749C16.6773 5.41665 15.7082 6.38575 15.7082 7.58331V10.8333L15.7103 10.9454C15.7696 12.0901 16.7154 13 17.8749 13H21.1249L21.237 12.9979C22.3437 12.9407 23.2323 12.0521 23.2895 10.9454L23.2916 10.8333V7.58331L23.2895 7.47119ZM14.625 29.7916C14.625 32.7834 12.2001 35.2082 9.2083 35.2082C6.21646 35.2082 3.79163 32.7834 3.79163 29.7916C3.79163 26.7998 6.21646 24.3749 9.2083 24.3749C12.2001 24.3749 14.625 26.7998 14.625 29.7916ZM20.5833 36.8332L20.5854 36.9454C20.6447 38.0901 21.5905 38.9999 22.75 38.9999H36.8333L36.9455 38.9978C38.0521 38.9407 38.9407 38.052 38.9979 36.9454L39 36.8332V22.7499C39 21.5904 38.0902 20.6446 36.9455 20.5854L36.8333 20.5833H22.75C21.5905 20.5833 20.6447 21.4931 20.5854 22.6378L20.5833 22.75L20.5833 36.8332ZM28.7061 2.05454C28.649 0.947918 27.7603 0.0592616 26.6537 0.00211588L26.5416 0H12.4582C11.2607 0 10.2916 0.969093 10.2916 2.16666V16.25L10.2937 16.3621C10.3529 17.5068 11.2987 18.4166 12.4582 18.4166H26.5416C27.7011 18.4166 28.6469 17.5068 28.7061 16.3621L28.7082 16.25V2.16666L28.7061 2.05454ZM25.4583 10.8333L25.4519 11.0555C25.3398 13.2729 23.5645 15.0481 21.3471 15.1603L21.1249 15.1666H17.8749C15.5559 15.1666 13.6643 13.3469 13.5479 11.0555L13.5416 10.8333V7.58333C13.5416 5.19025 15.4818 3.25 17.8749 3.25H21.1249L21.3471 3.25635C23.6386 3.37272 25.4582 5.26431 25.4582 7.58334L25.4583 10.8333Z" fill="#6B7280"/>
</svg>
