<svg width="38" height="38" viewBox="0 0 38 38" fill="none" xmlns="http://www.w3.org/2000/svg">
<path d="M19 0C15.2422 0 11.5687 1.11433 8.44417 3.20208C5.31964 5.28982 2.88436 8.25722 1.4463 11.729C0.00823234 15.2008 -0.368031 19.0211 0.365088 22.7067C1.09821 26.3923 2.90778 29.7778 5.56498 32.435C8.22218 35.0922 11.6077 36.9018 15.2933 37.6349C18.9789 38.368 22.7992 37.9918 26.271 36.5537C29.7428 35.1156 32.7102 32.6804 34.7979 29.5558C36.8857 26.4313 38 22.7578 38 19C38 13.9609 35.9982 9.12816 32.435 5.56497C28.8718 2.00178 24.0391 0 19 0ZM19 33.25C16.1816 33.25 13.4265 32.4142 11.0831 30.8484C8.73973 29.2826 6.91327 27.0571 5.83472 24.4532C4.75617 21.8494 4.47398 18.9842 5.02382 16.22C5.57366 13.4557 6.93084 10.9166 8.92373 8.92373C10.9166 6.93083 13.4557 5.57365 16.22 5.02381C18.9842 4.47397 21.8494 4.75617 24.4532 5.83472C27.0571 6.91326 29.2826 8.73972 30.8484 11.0831C32.4143 13.4265 33.25 16.1816 33.25 19C33.25 22.7793 31.7487 26.4039 29.0763 29.0763C26.4039 31.7487 22.7793 33.25 19 33.25Z" fill="#6B7280"/>
<path d="M21.5353 22.1469C21.2039 22.4826 20.8092 22.7491 20.374 22.931C19.9387 23.113 19.4717 23.2066 19 23.2066C18.5283 23.2066 18.0613 23.113 17.6261 22.931C17.1908 22.7491 16.7961 22.4826 16.4647 22.1469C16.2464 21.9235 15.9862 21.7453 15.699 21.6224C15.4118 21.4996 15.1032 21.4345 14.7909 21.4309C14.4786 21.4274 14.1686 21.4853 13.8786 21.6015C13.5887 21.7178 13.3245 21.8899 13.1011 22.1083C12.8777 22.3266 12.6995 22.5868 12.5767 22.874C12.4538 23.1612 12.3888 23.4697 12.3852 23.7821C12.3816 24.0944 12.4396 24.4044 12.5558 24.6943C12.672 24.9843 12.8442 25.2485 13.0625 25.4719C13.8365 26.2618 14.7603 26.8893 15.7798 27.3177C16.7994 27.7462 17.8941 27.9668 19 27.9668C20.1059 27.9668 21.2007 27.7462 22.2202 27.3177C23.2397 26.8893 24.1636 26.2618 24.9375 25.4719C25.1645 25.2511 25.3451 24.9872 25.4686 24.6957C25.5921 24.4041 25.6561 24.0909 25.6567 23.7742C25.6574 23.4576 25.5948 23.144 25.4725 22.852C25.3502 22.5599 25.1708 22.2953 24.9447 22.0736C24.7187 21.8519 24.4506 21.6776 24.1562 21.561C23.8618 21.4445 23.5471 21.3879 23.2305 21.3948C22.914 21.4016 22.602 21.4716 22.3129 21.6008C22.0238 21.73 21.7635 21.9156 21.5472 22.1469H21.5353Z" fill="#6B7280"/>
<path d="M13.8166 17.7531C15.1282 17.7531 16.1916 16.6898 16.1916 15.3781C16.1916 14.0664 15.1282 13.0031 13.8166 13.0031C12.5049 13.0031 11.4416 14.0664 11.4416 15.3781C11.4416 16.6898 12.5049 17.7531 13.8166 17.7531Z" fill="#6B7280"/>
<path d="M24.5041 17.7531C25.8157 17.7531 26.8791 16.6898 26.8791 15.3781C26.8791 14.0664 25.8157 13.0031 24.5041 13.0031C23.1924 13.0031 22.1291 14.0664 22.1291 15.3781C22.1291 16.6898 23.1924 17.7531 24.5041 17.7531Z" fill="#6B7280"/>
</svg>
