<svg width="48" height="40" viewBox="0 0 48 40" fill="none" xmlns="http://www.w3.org/2000/svg">
<path d="M44.7031 17.1483L24.9212 1.97396C24.5109 1.66628 24.0121 1.5 23.4996 1.5C22.987 1.5 22.4883 1.66628 22.0779 1.97396L2.29609 17.1483C1.93677 17.4089 1.67833 17.7858 1.56448 18.2153C1.45063 18.6447 1.48836 19.1004 1.67129 19.5053C1.85424 19.8903 2.14521 20.2137 2.50864 20.4358C2.87206 20.658 3.29221 20.7692 3.71774 20.756H8.94957V35.1281C8.94957 36.9877 10.6469 38.5 12.7326 38.5H34.2686C36.3543 38.5 38.0516 36.9882 38.0516 35.1281V20.756H43.2834C43.7092 20.7691 44.1295 20.6575 44.4929 20.435C44.8564 20.2125 45.1472 19.8887 45.3299 19.5032C45.5121 19.0984 45.5492 18.643 45.435 18.214C45.3208 17.7849 45.0623 17.4085 44.7031 17.1483ZM25.9299 36.4338H21.0693V26.4839H25.9299V36.4338ZM43.2834 18.6899H37.0203C36.8849 18.6898 36.7507 18.7165 36.6255 18.7684C36.5004 18.8202 36.3866 18.8963 36.2908 18.9923C36.195 19.0882 36.119 19.2021 36.0671 19.3275C36.0153 19.4529 35.9886 19.5872 35.9886 19.723V35.1281C35.9886 35.8361 35.2013 36.4338 34.2686 36.4338H27.9924V25.4508C27.9924 25.1768 27.8838 24.914 27.6904 24.7203C27.497 24.5266 27.2347 24.4177 26.9611 24.4177H20.038C19.7645 24.4177 19.5022 24.5266 19.3088 24.7203C19.1154 24.914 19.0068 25.1768 19.0068 25.4508V36.4338H12.7306C11.7979 36.4338 11.0101 35.8361 11.0101 35.1281V19.725C11.0101 19.451 10.9015 19.1882 10.7081 18.9945C10.5146 18.8007 10.2523 18.6919 9.97883 18.6919L6.78214 18.3822C6.78214 18.3822 6.78214 18.2153 4.51836 18.2153L23.3321 3.61481C23.3823 3.58346 23.4404 3.56684 23.4996 3.56684C23.5588 3.56684 23.6168 3.58346 23.6671 3.61481L41.2418 17.1483C41.23 17.1483 41.2438 17.1483 43.2834 18.6899Z" fill="#6B7280" stroke="#6B7280" stroke-width="3"/>
</svg>
