<svg width="39" height="39" viewBox="0 0 39 39" fill="none" xmlns="http://www.w3.org/2000/svg">
<path d="M23.9302 1H6.95809C5.37815 1.00294 3.86432 1.6305 2.7475 2.74744C1.63069 3.86438 1.00296 5.37818 1.00002 6.95793V34.745C1.0059 35.6327 1.37186 36.4807 2.01412 37.0936C2.65638 37.7064 3.51911 38.0327 4.40683 37.9974H24.1805C26.6394 37.993 28.6293 36.0016 28.6338 33.5443V5.70261C28.6294 3.10716 26.5258 1.00452 23.9302 1ZM26.7521 33.5446C26.7492 34.9643 25.5998 36.1136 24.1801 36.1166H4.40642C3.69068 36.1445 3.05723 35.6565 2.90143 34.9585C2.8882 34.8835 2.88232 34.8085 2.88085 34.7321V34.6866V34.688C2.89555 33.9253 3.5187 33.3154 4.28151 33.3154H24.1801C25.1016 33.3168 26.0011 33.0302 26.7521 32.4953L26.7521 33.5446ZM26.7521 28.8638C26.7492 30.2821 25.5998 31.4328 24.1801 31.4343H4.2815C3.79648 31.4343 3.31884 31.5416 2.88085 31.7488V6.95809C2.88379 4.708 4.70772 2.88418 6.95787 2.88117H23.93C25.4879 2.88411 26.7489 4.14658 26.7519 5.70296L26.7521 28.8638Z" fill="#6B7280"/>
<path d="M20.5854 7.06233H9.04664C7.83558 7.06527 6.85384 8.04702 6.85237 9.25802V14.6503C6.85384 15.8613 7.83562 16.843 9.04664 16.8445H20.5854C21.7965 16.843 22.7782 15.8613 22.7797 14.6503V9.25802C22.7782 8.04551 21.7964 7.06379 20.5854 7.06233ZM20.8985 14.6458C20.8985 14.7296 20.8661 14.8089 20.8073 14.8677C20.7485 14.9265 20.6692 14.9603 20.5854 14.9603H9.04664C8.87469 14.9588 8.7336 14.8192 8.7336 14.6458V9.25354C8.7336 9.08011 8.87469 8.94049 9.04664 8.94049H20.5854C20.6692 8.94049 20.7485 8.97283 20.8073 9.03162C20.8661 9.0904 20.8985 9.17123 20.8985 9.25354V14.6458Z" fill="#6B7280"/>
<path d="M34.2375 1C32.1608 1 30.4751 2.68427 30.4751 4.76238V31.1871C30.4765 31.8984 30.6382 32.6009 30.9468 33.2432L32.9163 37.2802C33.2043 37.7285 33.7011 38.0004 34.2346 37.9989C34.8063 37.993 35.3325 37.6815 35.6132 37.1832L37.5268 33.2429H37.5282C37.8369 32.6006 37.9986 31.8981 38 31.1868V4.76058C37.9986 2.68393 36.3142 1.00147 34.2375 1ZM32.3563 28.8638V7.56348H36.1188V28.8638H32.3563ZM34.2375 2.88119C35.2766 2.88119 36.1188 3.72333 36.1188 4.76238V5.68387H32.3563V4.76092C32.3578 3.72186 33.1999 2.88119 34.2375 2.88119ZM34.2375 35.708L32.3563 31.1871H36.1188L34.2375 35.708Z" fill="#6B7280"/>
<path d="M23.9302 1H6.95809C5.37815 1.00294 3.86432 1.6305 2.7475 2.74744C1.63069 3.86438 1.00296 5.37818 1.00002 6.95793V34.745C1.0059 35.6327 1.37186 36.4807 2.01412 37.0936C2.65638 37.7064 3.51911 38.0327 4.40683 37.9974H24.1805C26.6394 37.993 28.6293 36.0016 28.6338 33.5443V5.70261C28.6294 3.10716 26.5258 1.00452 23.9302 1ZM26.7521 33.5446C26.7492 34.9643 25.5998 36.1136 24.1801 36.1166H4.40642C3.69068 36.1445 3.05723 35.6565 2.90143 34.9585C2.8882 34.8835 2.88232 34.8085 2.88085 34.7321V34.6866V34.688C2.89555 33.9253 3.5187 33.3154 4.28151 33.3154H24.1801C25.1016 33.3168 26.0011 33.0302 26.7521 32.4953L26.7521 33.5446ZM26.7521 28.8638C26.7492 30.2821 25.5998 31.4328 24.1801 31.4343H4.2815C3.79648 31.4343 3.31884 31.5416 2.88085 31.7488V6.95809C2.88379 4.708 4.70772 2.88418 6.95787 2.88117H23.93C25.4879 2.88411 26.7489 4.14658 26.7519 5.70296L26.7521 28.8638Z" stroke="#6B7280" stroke-width="2"/>
<path d="M20.5854 7.06233H9.04664C7.83558 7.06527 6.85384 8.04702 6.85237 9.25802V14.6503C6.85384 15.8613 7.83562 16.843 9.04664 16.8445H20.5854C21.7965 16.843 22.7782 15.8613 22.7797 14.6503V9.25802C22.7782 8.04551 21.7964 7.06379 20.5854 7.06233ZM20.8985 14.6458C20.8985 14.7296 20.8661 14.8089 20.8073 14.8677C20.7485 14.9265 20.6692 14.9603 20.5854 14.9603H9.04664C8.87469 14.9588 8.7336 14.8192 8.7336 14.6458V9.25354C8.7336 9.08011 8.87469 8.94049 9.04664 8.94049H20.5854C20.6692 8.94049 20.7485 8.97283 20.8073 9.03162C20.8661 9.0904 20.8985 9.17123 20.8985 9.25354V14.6458Z" stroke="#6B7280" stroke-width="2"/>
<path d="M34.2375 1C32.1608 1 30.4751 2.68427 30.4751 4.76238V31.1871C30.4765 31.8984 30.6382 32.6009 30.9468 33.2432L32.9163 37.2802C33.2043 37.7285 33.7011 38.0004 34.2346 37.9989C34.8063 37.993 35.3325 37.6815 35.6132 37.1832L37.5268 33.2429H37.5282C37.8369 32.6006 37.9986 31.8981 38 31.1868V4.76058C37.9986 2.68393 36.3142 1.00147 34.2375 1ZM32.3563 28.8638V7.56348H36.1188V28.8638H32.3563ZM34.2375 2.88119C35.2766 2.88119 36.1188 3.72333 36.1188 4.76238V5.68387H32.3563V4.76092C32.3578 3.72186 33.1999 2.88119 34.2375 2.88119ZM34.2375 35.708L32.3563 31.1871H36.1188L34.2375 35.708Z" stroke="#6B7280" stroke-width="2"/>
</svg>
