<svg width="68" height="68" viewBox="0 0 68 68" fill="none" xmlns="http://www.w3.org/2000/svg">
<path fill-rule="evenodd" clip-rule="evenodd" d="M34 0C52.7771 0 68 15.2229 68 34C68 52.7771 52.7771 68 34 68C15.2229 68 0 52.7771 0 34C0 15.2229 15.2229 0 34 0ZM34 13.4376C31.574 13.4405 29.5936 15.3441 29.4726 17.7377L29.4667 17.9709V29.4667H17.9709L17.7377 29.4726C15.3441 29.5936 13.4376 31.5739 13.4376 34C13.4376 36.4261 15.3441 38.4064 17.7377 38.5274L17.9709 38.5333H29.4667V50.0291L29.4726 50.2623C29.5936 52.6559 31.5739 54.5595 34 54.5624C36.426 54.5595 38.4064 52.6559 38.5274 50.2623L38.5333 50.0291V38.5333H50.0291L50.2623 38.5274C52.6559 38.4064 54.5624 36.4261 54.5624 34C54.5624 31.5739 52.6559 29.5936 50.2623 29.4726L50.0291 29.4667H38.5333V17.9709L38.5274 17.7377C38.4064 15.3441 36.4261 13.4405 34 13.4376Z" fill="#253040"/>
</svg>
